<?xml version="1.0" encoding="UTF-8"?>
<svg width="752pt" height="752pt" version="1.1" viewBox="0 0 752 752" xmlns="http://www.w3.org/2000/svg">
 <g>
  <path d="m569.74 147.82h-387.47c-18.801 0-34.082 15.285-34.082 34.082v305.82c0 18.801 15.285 34.082 34.082 34.082h87.324c2.9414 0 5.3828-2.4414 5.3828-5.3828s-2.4414-5.3828-5.3828-5.3828l-87.324 0.003907c-12.844 0-23.32-10.477-23.32-23.32v-254.59h434.12v254.59c0 12.844-10.477 23.32-23.32 23.32h-87.328c-2.9414 0-5.3828 2.4414-5.3828 5.3828 0 2.9414 2.4414 5.3828 5.3828 5.3828h87.324c18.801 0 34.082-15.285 34.082-34.082l0.003907-305.82c0-18.801-15.285-34.086-34.086-34.086zm-410.79 74.555v-40.469c0-12.844 10.473-23.32 23.32-23.32h387.48c12.844 0 23.32 10.477 23.32 23.32v40.469z"/>
  <path d="m206.38 174.37c-8.8984 0-16.145 7.2461-16.145 16.145s7.2461 16.145 16.145 16.145 16.145-7.2461 16.145-16.145-7.25-16.145-16.145-16.145zm0 21.527c-2.9414 0-5.3828-2.4414-5.3828-5.3828s2.4375-5.3828 5.3828-5.3828c2.9414 0 5.3828 2.4414 5.3828 5.3828-0.003906 2.9414-2.4414 5.3828-5.3828 5.3828z"/>
  <path d="m246.99 174.37c-8.8984 0-16.145 7.2461-16.145 16.145s7.2461 16.145 16.145 16.145c8.8984 0 16.145-7.2461 16.145-16.145s-7.1758-16.145-16.145-16.145zm0 21.527c-2.9414 0-5.3828-2.4414-5.3828-5.3828s2.4414-5.3828 5.3828-5.3828c2.9414 0 5.3828 2.4414 5.3828 5.3828-0.003906 2.9414-2.3711 5.3828-5.3828 5.3828z"/>
  <path d="m287.67 174.37c-8.8984 0-16.145 7.2461-16.145 16.145s7.2461 16.145 16.145 16.145 16.145-7.2461 16.145-16.145-7.2461-16.145-16.145-16.145zm0 21.527c-2.9414 0-5.3828-2.4414-5.3828-5.3828s2.4414-5.3828 5.3828-5.3828 5.3828 2.4414 5.3828 5.3828-2.4414 5.3828-5.3828 5.3828z"/>
  <path d="m400.9 411.3c-5.3086-8.8242-14.566-14.137-24.898-14.137s-19.59 5.3086-24.898 14.137l-88.902 149.04c-5.3828 9.043-5.5234 19.949-0.28516 29.133 5.2383 9.1836 14.637 14.637 25.188 14.637h177.88c10.547 0 20.02-5.4531 25.188-14.637 5.2383-9.1836 5.0938-20.09-0.28516-29.133zm79.863 172.86c-3.3008 5.8125-9.1836 9.2578-15.859 9.2578h-177.8c-6.6719 0-12.559-3.4453-15.859-9.2578-3.3008-5.7422-3.2305-12.629 0.21484-18.297l88.902-149.04c3.3008-5.5234 9.1836-8.8984 15.641-8.8984 6.457 0 12.344 3.3008 15.641 8.8984l88.902 149.04c3.4531 5.668 3.5234 12.559 0.22266 18.297z"/>
  <path d="m360 443.09c-4.2344 4.4492-6.3867 10.262-6.0273 16.434l4.1602 66.156c0.50391 9.543 8.3945 17.008 17.938 17.008 9.543 0 17.438-7.4609 17.938-17.008l4.1602-66.23c0.28516-6.0977-1.8672-11.91-6.0273-16.359-8.5352-8.8984-23.746-8.8984-32.141 0zm23.176 82.016c-0.21484 3.8047-3.3711 6.8164-7.1758 6.8164s-6.9609-3.0156-7.1758-6.8867l-4.1602-66.156c-0.14453-3.1562 0.93359-6.0977 3.0859-8.3945s5.0938-3.5156 8.25-3.5156 6.0273 1.2188 8.25 3.5156 3.3008 5.2383 3.0859 8.3242z"/>
  <path d="m376 546.35c-9.543 0-17.293 7.75-17.293 17.293s7.75 17.293 17.293 17.293 17.293-7.75 17.293-17.293-7.75-17.293-17.293-17.293zm0 23.895c-3.5859 0-6.5312-2.9414-6.5312-6.5312 0-3.5859 2.9414-6.5312 6.5312-6.5312 3.5859 0 6.5312 2.9414 6.5312 6.5312 0 3.5898-2.9414 6.5312-6.5312 6.5312z"/>
  <path d="m303.82 383.54c2.9414 0 5.3828-2.4414 5.3828-5.3828v-33.723h13.922c2.9414 0 5.3828-2.4414 5.3828-5.3828s-2.4414-5.3828-5.3828-5.3828h-13.922v-53.672c0-2.2969-1.4336-4.3047-3.5859-5.0938-2.1523-0.78906-4.5195-0.14453-5.957 1.6484l-48.863 59.055c-1.3633 1.5781-1.5781 3.8047-0.71875 5.7422 0.85938 1.8672 2.7969 3.0859 4.8789 3.0859h43.484v33.652c-0.003906 3.0156 2.4375 5.4531 5.3789 5.4531zm-5.3828-88.617v38.746h-32.074z"/>
  <path d="m479.54 274.9c-2.1523-0.78906-4.5195-0.14453-5.957 1.6484l-48.863 59.055c-1.3633 1.5781-1.5781 3.8047-0.71875 5.7422 0.85938 1.8672 2.7969 3.0859 4.8789 3.0859h43.484v33.652c0 2.9414 2.4414 5.3828 5.3828 5.3828s5.3828-2.4414 5.3828-5.3828v-33.652h13.922c2.9414 0 5.3828-2.4414 5.3828-5.3828s-2.4414-5.3828-5.3828-5.3828h-13.922v-53.672c0-2.293-1.4375-4.3047-3.5898-5.0938zm-7.1758 20.02v38.746h-32.074z"/>
  <path d="m345.29 305.32v47.5c0 16.934 13.777 30.711 30.711 30.711s30.711-13.777 30.711-30.711v-47.5c0-16.934-13.777-30.711-30.711-30.711s-30.711 13.777-30.711 30.711zm50.66 0v47.5c0 10.977-8.9688 19.949-19.949 19.949-10.977 0-19.949-8.9688-19.949-19.949v-47.5c0-10.977 8.9688-19.949 19.949-19.949s19.949 8.8984 19.949 19.949z"/>
  <path d="m465.27 493.11h104.47c2.9414 0 5.3828-2.4414 5.3828-5.3828v-231.27c0-2.9414-2.4414-5.3828-5.3828-5.3828l-387.47 0.003906c-2.9414 0-5.3828 2.4414-5.3828 5.3828v231.27c0 2.9414 2.4414 5.3828 5.3828 5.3828h104.48c2.9414 0 5.3828-2.4414 5.3828-5.3828 0-2.9414-2.4414-5.3828-5.3828-5.3828h-99.098v-220.5h376.71v220.5h-99.09c-2.9414 0-5.3828 2.4414-5.3828 5.3828 0 2.9375 2.4414 5.3789 5.3828 5.3789z"/>
 </g>
</svg>
